<svg width="186" height="31" viewBox="0 0 186 31" fill="none" xmlns="http://www.w3.org/2000/svg">
<path opacity="0.85" d="M28.649 22.4801L16.0864 15.2317C15.4527 14.8658 14.6903 14.863 14.0539 15.2232L1.60682 22.2679C1.37743 22.398 1.37555 22.7479 1.60305 22.8808L14.1582 30.2084C14.7965 30.5809 15.5684 30.5847 16.2095 30.2169L28.6481 23.093C28.8765 22.9619 28.8765 22.6111 28.649 22.4801Z" fill="url(#paint0_linear)"/>
<path opacity="0.8" d="M28.649 16.7802L16.0864 9.53178C15.4527 9.16592 14.6903 9.16309 14.0539 9.5233L1.60682 16.568C1.37743 16.6981 1.37555 17.048 1.60305 17.1809L14.1582 24.5085C14.7965 24.881 15.5684 24.8848 16.2095 24.517L28.6481 17.3931C28.8765 17.262 28.8765 16.9112 28.649 16.7802Z" fill="#010D4F"/>
<path d="M30.0622 8.31087L16.1862 0.305298C15.4858 -0.0982812 14.6435 -0.102053 13.9412 0.295868L0.191203 8.07702C-0.0616866 8.22035 -0.0645069 8.60695 0.187442 8.75405L1.40864 9.46691V14.4258L3.30108 13.3547V10.572L14.055 16.8483C14.7601 17.2603 15.6127 17.2631 16.3206 16.8577L30.0603 8.9879C30.3142 8.84363 30.3142 8.45702 30.0622 8.31087Z" fill="url(#paint1_linear)"/>
<path d="M40.6133 8.70355H43.2592V22.1627H40.6133V8.70355Z" fill="#010D4F"/>
<path d="M51.0685 12.2802C52.1161 12.2802 52.9823 12.6326 53.6659 13.3387C54.3494 14.0435 54.6918 15.0174 54.6918 16.2617V22.1641H52.2183V16.568C52.2183 15.9273 52.0459 15.4365 51.7009 15.0969C51.3559 14.7573 50.8947 14.5868 50.3198 14.5868C49.681 14.5868 49.1699 14.7855 48.7867 15.1827C48.4034 15.58 48.2117 16.1759 48.2117 16.9716V22.1628H45.7383V12.5493H48.2117V13.6257C48.8135 12.7287 49.7653 12.2802 51.0685 12.2802Z" fill="#010D4F"/>
<path d="M62.2119 14.9338H60.0451V18.9332C60.0451 19.2664 60.1281 19.5099 60.2942 19.6637C60.4603 19.8174 60.703 19.9046 61.0224 19.9238C61.3418 19.943 61.7392 19.9404 62.2119 19.9135V22.1638C60.5114 22.356 59.313 22.1958 58.6167 21.6832C57.9204 21.1706 57.5716 20.2544 57.5716 18.9332V14.9338H55.9043V12.5503H57.5716V10.6076L60.0451 9.85791V12.5503H62.2119V14.9338Z" fill="#010D4F"/>
<path d="M66.0676 18.3761C66.3998 19.5807 67.3005 20.183 68.7698 20.183C69.7152 20.183 70.4307 19.8626 70.9174 19.2219L72.9118 20.3752C71.9664 21.7476 70.5738 22.4319 68.7327 22.4319C67.1485 22.4319 65.8773 21.9514 64.9178 20.9903C63.9596 20.0292 63.4805 18.8182 63.4805 17.3561C63.4805 15.908 63.9532 14.6996 64.8986 13.7321C65.844 12.7646 67.0591 12.2802 68.5411 12.2802C69.9465 12.2802 71.1065 12.7672 72.02 13.7424C72.9335 14.7163 73.3909 15.9221 73.3909 17.3574C73.3909 17.6777 73.359 18.0173 73.2951 18.3774H66.0676V18.3761ZM66.0293 16.4526H70.9174C70.7769 15.7991 70.4869 15.3121 70.0448 14.9905C69.6041 14.6701 69.1032 14.51 68.5398 14.51C67.8754 14.51 67.3248 14.6804 66.8917 15.02C66.4573 15.3596 66.1698 15.8375 66.0293 16.4526Z" fill="#010D4F"/>
<path d="M77.6395 14.2032C77.8694 13.5868 78.2489 13.1268 78.7804 12.818C79.3106 12.5104 79.9021 12.3566 80.5537 12.3566V15.1259C79.7986 15.0362 79.1253 15.1912 78.5312 15.5872C77.9372 15.9844 77.6395 16.6444 77.6395 17.5671V22.1624H75.166V12.5488H77.6395V14.2032Z" fill="#010D4F"/>
<path d="M88.7258 12.5488H91.4471L87.8046 22.1624H84.9862L81.3438 12.5488H84.0663L86.389 19.2778L88.7258 12.5488Z" fill="#010D4F"/>
<path d="M93.8883 11.3958C93.4795 11.3958 93.1243 11.2459 92.824 10.9435C92.5225 10.6436 92.373 10.2874 92.373 9.87601C92.373 9.46594 92.5225 9.10713 92.824 8.79958C93.123 8.49203 93.4782 8.33826 93.8883 8.33826C94.3099 8.33826 94.6702 8.49203 94.9717 8.79958C95.2707 9.10713 95.4227 9.46722 95.4227 9.87601C95.4227 10.2861 95.272 10.6423 94.9717 10.9435C94.6702 11.2459 94.3099 11.3958 93.8883 11.3958ZM92.6618 22.1639V12.5491H95.1353V22.1627H92.6618V22.1639Z" fill="#010D4F"/>
<path d="M99.4504 18.3761C99.7826 19.5807 100.683 20.183 102.153 20.183C103.098 20.183 103.813 19.8626 104.3 19.2219L106.295 20.3752C105.349 21.7476 103.957 22.4319 102.116 22.4319C100.53 22.4319 99.2601 21.9514 98.3006 20.9903C97.3424 20.0292 96.8633 18.8182 96.8633 17.3561C96.8633 15.908 97.336 14.6996 98.2814 13.7321C99.2269 12.7646 100.442 12.2802 101.924 12.2802C103.329 12.2802 104.489 12.7672 105.403 13.7424C106.316 14.7163 106.774 15.9221 106.774 17.3574C106.774 17.6777 106.742 18.0173 106.678 18.3774H99.4504V18.3761ZM99.4121 16.4526H104.3C104.16 15.7991 103.87 15.3121 103.428 14.9905C102.987 14.6701 102.486 14.51 101.923 14.51C101.258 14.51 100.708 14.6804 100.275 15.02C99.8401 15.3596 99.5527 15.8375 99.4121 16.4526Z" fill="#010D4F"/>
<path d="M119.065 12.5488H121.439L118.644 22.1624H116.22L114.407 16.3356L112.594 22.1624H110.171L107.354 12.5488H109.969L111.611 18.4512L113.356 12.5488H115.696L117.442 18.4717L119.065 12.5488Z" fill="#010D4F"/>
<path d="M132.213 22.6434C130.883 22.6434 129.765 22.3461 128.858 21.7489C127.951 21.1531 127.311 20.3419 126.941 19.3167L129.204 17.9904C129.728 19.3629 130.756 20.0472 132.291 20.0472C133.032 20.0472 133.575 19.9126 133.92 19.6435C134.265 19.3744 134.437 19.0348 134.437 18.6247C134.437 18.1506 134.226 17.7815 133.805 17.5188C133.383 17.2574 132.629 16.9717 131.542 16.6628C130.942 16.4834 130.433 16.304 130.018 16.1246C129.601 15.9452 129.186 15.7056 128.772 15.4044C128.357 15.1033 128.04 14.7214 127.823 14.2601C127.606 13.7988 127.497 13.2605 127.497 12.6454C127.497 11.428 127.929 10.4567 128.791 9.73267C129.654 9.00865 130.692 8.646 131.906 8.646C132.992 8.646 133.948 8.91254 134.772 9.44435C135.596 9.97615 136.239 10.7168 136.699 11.6651L134.474 12.953C133.938 11.7997 133.08 11.223 131.905 11.223C131.356 11.223 130.924 11.3486 130.611 11.5985C130.298 11.8484 130.142 12.1726 130.142 12.5685C130.142 12.9914 130.318 13.3349 130.669 13.5976C131.021 13.8603 131.695 14.146 132.692 14.4536C133.101 14.5817 133.411 14.6804 133.621 14.7509C133.832 14.8214 134.119 14.9303 134.483 15.0789C134.849 15.2263 135.128 15.3647 135.328 15.4928C135.526 15.621 135.753 15.794 136.007 16.0118C136.263 16.2297 136.458 16.4539 136.592 16.6846C136.727 16.9153 136.842 17.1933 136.937 17.5201C137.033 17.8482 137.081 18.2031 137.081 18.5876C137.081 19.8306 136.63 20.8186 135.729 21.549C134.828 22.2795 133.657 22.6434 132.213 22.6434Z" fill="#010D4F"/>
<path d="M143.342 22.6443C141.897 22.6443 140.693 22.1573 139.729 21.1834C138.763 20.2095 138.281 19.0037 138.281 17.5684C138.281 16.1332 138.763 14.9286 139.729 13.9534C140.693 12.9795 141.898 12.4913 143.342 12.4913C144.275 12.4913 145.125 12.7155 145.892 13.164C146.659 13.6126 147.24 14.2148 147.637 14.9709L145.509 16.2203C145.317 15.8231 145.027 15.5091 144.636 15.2785C144.246 15.0478 143.808 14.9325 143.323 14.9325C142.582 14.9325 141.968 15.1798 141.483 15.6731C140.997 16.1665 140.755 16.7983 140.755 17.5671C140.755 18.3245 140.997 18.9486 141.483 19.4419C141.968 19.9353 142.582 20.1826 143.323 20.1826C143.821 20.1826 144.266 20.0698 144.655 19.8456C145.045 19.6213 145.335 19.3112 145.528 18.914L147.676 20.1442C147.254 20.9015 146.659 21.5064 145.892 21.9613C145.124 22.4162 144.275 22.6443 143.342 22.6443Z" fill="#010D4F"/>
<path d="M154.423 12.4899C155.47 12.4899 156.337 12.8423 157.02 13.5484C157.704 14.2532 158.046 15.2271 158.046 16.4714V22.3738H155.573V16.7777C155.573 16.1369 155.4 15.6461 155.055 15.3066C154.71 14.967 154.249 14.7965 153.674 14.7965C153.035 14.7965 152.524 14.9952 152.141 15.3924C151.758 15.7897 151.566 16.3855 151.566 17.1813V22.3725H149.094V8.91461H151.567V13.8367C152.168 12.9397 153.119 12.4899 154.423 12.4899Z" fill="#010D4F"/>
<path d="M168.371 21.1732C167.387 22.1535 166.185 22.6443 164.767 22.6443C163.348 22.6443 162.149 22.1535 161.172 21.1732C160.194 20.1929 159.705 18.9908 159.705 17.5671C159.705 16.1447 160.194 14.9427 161.172 13.9624C162.149 12.9808 163.348 12.4913 164.767 12.4913C166.185 12.4913 167.386 12.9821 168.371 13.9624C169.355 14.9427 169.848 16.1447 169.848 17.5671C169.848 18.9908 169.356 20.1929 168.371 21.1732ZM162.918 19.4714C163.41 19.9712 164.026 20.2211 164.768 20.2211C165.509 20.2211 166.129 19.9712 166.628 19.4714C167.127 18.9716 167.376 18.3373 167.376 17.5671C167.376 16.7983 167.127 16.1639 166.628 15.6629C166.13 15.1631 165.509 14.9132 164.768 14.9132C164.026 14.9132 163.41 15.1631 162.918 15.6629C162.426 16.1627 162.18 16.7983 162.18 17.5671C162.18 18.3373 162.425 18.9716 162.918 19.4714Z" fill="#010D4F"/>
<path d="M179.76 21.1732C178.776 22.1535 177.574 22.6443 176.156 22.6443C174.736 22.6443 173.539 22.1535 172.56 21.1732C171.583 20.1929 171.094 18.9908 171.094 17.5671C171.094 16.1447 171.583 14.9427 172.56 13.9624C173.538 12.9808 174.736 12.4913 176.156 12.4913C177.574 12.4913 178.775 12.9821 179.76 13.9624C180.744 14.9427 181.237 16.1447 181.237 17.5671C181.235 18.9908 180.744 20.1929 179.76 21.1732ZM174.306 19.4714C174.798 19.9712 175.413 20.2211 176.156 20.2211C176.897 20.2211 177.516 19.9712 178.016 19.4714C178.514 18.9716 178.763 18.3373 178.763 17.5671C178.763 16.7983 178.514 16.1639 178.016 15.6629C177.518 15.1631 176.897 14.9132 176.156 14.9132C175.413 14.9132 174.798 15.1631 174.306 15.6629C173.814 16.1627 173.567 16.7983 173.567 17.5671C173.567 18.3373 173.812 18.9716 174.306 19.4714Z" fill="#010D4F"/>
<path d="M182.994 22.3739V8.33801H185.468V22.3752H182.994V22.3739Z" fill="#010D4F"/>
<defs>
<linearGradient id="paint0_linear" x1="15.1927" y1="31.2823" x2="15.0621" y2="14.4311" gradientUnits="userSpaceOnUse">
<stop stop-color="#2AFD84"/>
<stop offset="1" stop-color="#4BAE73"/>
</linearGradient>
<linearGradient id="paint1_linear" x1="-0.692528" y1="8.79436" x2="29.6861" y2="8.38415" gradientUnits="userSpaceOnUse">
<stop stop-color="#2AFD84"/>
<stop offset="1" stop-color="#4BAE73"/>
</linearGradient>
</defs>
</svg>
